<svg width="100" height="100" viewBox="0 0 100 100" fill="none" xmlns="http://www.w3.org/2000/svg">
<path fill-rule="evenodd" clip-rule="evenodd" d="M93.75 75C93.75 75.6344 93.6281 76.2344 93.4531 76.8063L65.625 46.875L93.75 25V75ZM11.1125 81.0813L39.3125 51.0312L50 59.1094L60.225 50.9812L88.8875 81.0813C88.4406 81.1844 11.5594 81.1844 11.1125 81.0813ZM6.25 75V25L34.375 46.875L6.54688 76.8063C6.37188 76.2344 6.25 75.6344 6.25 75ZM90.625 18.75L50 50L9.375 18.75H90.625ZM87.5 12.5H12.5C5.59687 12.5 0 18.0969 0 25V75C0 81.9031 5.59687 87.5 12.5 87.5H87.5C94.4031 87.5 100 81.9031 100 75V25C100 18.0969 94.4031 12.5 87.5 12.5Z" fill="#45AFE3"/>
</svg>
