<svg width="124" height="125" viewBox="0 0 124 125" fill="none" xmlns="http://www.w3.org/2000/svg">
<path d="M54.4725 3.90625C53.6636 3.90582 52.8751 4.16318 52.2187 4.64246C51.5623 5.12173 51.0714 5.79827 50.8154 6.57624L46.9025 18.4781C45.3226 19.0421 43.7773 19.6886 42.2671 20.4236L31.198 14.816C30.4747 14.4495 29.656 14.3232 28.8579 14.4546C28.0597 14.5861 27.3226 14.9688 26.7508 15.5486L15.8548 26.5957C15.283 27.1754 14.9055 27.923 14.7758 28.7323C14.6462 29.5415 14.7709 30.3715 15.1324 31.1049L20.6557 42.3048C19.9291 43.8436 19.2862 45.4175 18.7293 47.0275L7.00554 50.9946C6.23823 51.2542 5.57094 51.752 5.09824 52.4175C4.62554 53.083 4.3714 53.8821 4.37183 54.7022V70.3275C4.3714 71.1476 4.62554 71.9472 5.09824 72.6127C5.57094 73.2782 6.23823 73.776 7.00554 74.0356L18.7669 78.0104C19.3213 79.6025 19.9578 81.1572 20.6782 82.6795L15.1324 93.9253C14.771 94.6587 14.6462 95.4887 14.7759 96.2979C14.9055 97.1071 15.283 97.8543 15.8548 98.434L26.7508 109.489C27.3226 110.069 28.0597 110.451 28.8579 110.583C29.656 110.714 30.4747 110.588 31.198 110.221L42.2671 104.606C43.7758 105.337 45.3171 105.982 46.8949 106.544L50.8154 118.461C51.0714 119.239 51.5623 119.916 52.2187 120.395C52.8751 120.874 53.6636 121.132 54.4725 121.132H69.8834C70.6923 121.132 71.4808 120.874 72.1372 120.395C72.7936 119.916 73.2846 119.239 73.5405 118.461L77.461 106.521C79.0271 105.961 80.5611 105.318 82.0587 104.591L93.1579 110.221C93.8812 110.588 94.6999 110.714 95.4981 110.583C96.2962 110.451 97.0334 110.069 97.6051 109.489L108.501 98.434C109.073 97.8543 109.45 97.1071 109.58 96.2979C109.71 95.4887 109.585 94.6587 109.224 93.9253L103.693 82.7101C104.418 81.1766 105.055 79.6069 105.612 78.0027L117.35 74.0356C118.118 73.776 118.785 73.2782 119.258 72.6127C119.73 71.9472 119.985 71.1476 119.984 70.3275V54.7027C119.985 53.8826 119.73 53.083 119.258 52.4175C118.785 51.752 118.118 51.2542 117.35 50.9946L105.604 47.0275C105.048 45.4283 104.409 43.8641 103.685 42.3354L109.224 31.1049C109.585 30.3715 109.71 29.5415 109.58 28.7323C109.45 27.923 109.073 27.1754 108.501 26.5957L97.6051 15.5486C97.0334 14.9688 96.2962 14.5861 95.4981 14.4546C94.6999 14.3232 93.8812 14.4499 93.1579 14.8164L82.1189 20.4087C80.5961 19.6705 79.0391 19.0209 77.446 18.4556L73.5405 6.57669C73.2846 5.79869 72.7936 5.12176 72.1372 4.64246C71.4809 4.16316 70.6923 3.90583 69.8834 3.90625H54.4725ZM57.2492 11.7184H67.1068L70.6811 22.598C70.877 23.1941 71.2119 23.7339 71.6572 24.1709C72.1026 24.6078 72.6454 24.9291 73.2395 25.108C75.7471 25.8639 78.1735 26.8749 80.4785 28.1294C81.0214 28.4262 81.6267 28.5864 82.2435 28.5967C82.8602 28.6069 83.4704 28.467 84.0227 28.1884L94.1211 23.0692L101.089 30.1339L96.0174 40.4183C95.7406 40.9788 95.6009 41.5987 95.61 42.2255C95.6192 42.8522 95.777 43.4677 96.0701 44.0196C97.3044 46.3412 98.3085 48.7799 99.0574 51.3055C99.2342 51.9057 99.5507 52.4539 99.9803 52.9041C100.41 53.3542 100.94 53.6932 101.526 53.8922L112.279 57.5236V67.5178L101.533 71.1497C100.947 71.3487 100.417 71.6873 99.9878 72.1374C99.5583 72.5875 99.2418 73.1358 99.065 73.7359C98.3169 76.2664 97.3128 78.7113 96.0776 81.0372C95.7845 81.5891 95.6267 82.2045 95.6175 82.8313C95.6083 83.4581 95.7481 84.0779 96.0249 84.6385L101.089 94.9075L94.1211 101.98L83.955 96.8224C83.4017 96.5426 82.7902 96.4021 82.172 96.4124C81.5538 96.4226 80.9471 96.5834 80.4032 96.8814C78.1217 98.126 75.7283 99.1385 73.2471 99.8951C72.6552 100.074 72.1144 100.395 71.6705 100.831C71.2265 101.266 70.8923 101.804 70.6961 102.398L67.1068 113.331H57.2492L53.6598 102.413C53.4646 101.818 53.1309 101.279 52.6869 100.842C52.2428 100.405 51.7016 100.083 51.1089 99.9028C48.6183 99.1484 46.2053 98.1435 43.9151 96.8967C43.3721 96.6 42.7668 96.4398 42.1501 96.4295C41.5333 96.4192 40.9232 96.5592 40.3709 96.8377L30.2348 101.98L23.2668 94.9075L28.3461 84.6078C28.6229 84.0473 28.7626 83.4274 28.7534 82.8007C28.7443 82.1739 28.5865 81.5589 28.2934 81.007C27.0626 78.6917 26.0616 76.2542 25.3135 73.7359C25.1357 73.1372 24.8187 72.5906 24.3892 72.1419C23.9598 71.6931 23.4303 71.3552 22.8454 71.157L12.0773 67.5178V57.5236L22.8153 53.8922C23.4024 53.6942 23.934 53.3556 24.3649 52.9054C24.7958 52.4552 25.1135 51.9065 25.291 51.3055C26.0382 48.7703 27.0347 46.3193 28.2708 43.989C28.5639 43.437 28.7217 42.8216 28.7309 42.1948C28.7401 41.5681 28.6003 40.9482 28.3235 40.3877L23.2668 30.1339L30.2348 23.0692L40.3709 28.2038C40.9241 28.4836 41.5357 28.6241 42.1538 28.6138C42.772 28.6035 43.3787 28.4428 43.9226 28.1447C46.2145 26.8928 48.6229 25.8745 51.1164 25.1157C51.7083 24.9364 52.249 24.6158 52.693 24.1803C53.137 23.7448 53.4711 23.2072 53.6673 22.6133L57.2492 11.7184Z" fill="#45AFE3"/>
<path d="M62.1647 35.1484C47.3157 35.1484 35.2031 47.458 35.2031 62.5133C35.2031 77.5686 47.3157 89.8494 62.1647 89.8494C77.0137 89.8494 89.1548 77.5686 89.1548 62.5133C89.1548 47.458 77.0137 35.1484 62.1647 35.1484ZM62.1647 42.9629C72.8494 42.9629 81.4474 51.6803 81.4474 62.5133C81.4474 73.3464 72.8494 82.035 62.1647 82.035C51.48 82.035 42.9105 73.3464 42.9105 62.5133C42.9105 51.6803 51.48 42.9629 62.1647 42.9629Z" fill="#45AFE3"/>
</svg>
